<svg width="47" height="47" viewBox="0 0 47 47" fill="none" xmlns="http://www.w3.org/2000/svg">
<path d="M33.8315 10.712C34.6838 11.026 35.25 11.838 35.25 12.7463L35.25 34.2537C35.25 35.1619 34.6838 35.9739 33.8315 36.2879C32.219 36.882 30.4476 36.882 28.8351 36.2879C27.9829 35.9739 27.4167 35.1619 27.4167 34.2537L27.4167 12.7463C27.4167 11.838 27.9829 11.026 28.8351 10.712C30.4476 10.118 32.219 10.118 33.8315 10.712Z" fill="white"/>
<path d="M18.1649 10.712C19.0171 11.026 19.5833 11.838 19.5833 12.7463L19.5833 34.2537C19.5833 35.1619 19.0171 35.9739 18.1649 36.2879C16.5524 36.882 14.781 36.882 13.1685 36.2879C12.3162 35.9739 11.75 35.1619 11.75 34.2537L11.75 12.7463C11.75 11.838 12.3162 11.026 13.1685 10.712C14.781 10.118 16.5524 10.118 18.1649 10.712Z" fill="white"/>
</svg>
